<?xml version="1.0" standalone="no"?>
<!DOCTYPE svg PUBLIC "-//W3C//DTD SVG 20010904//EN"
 "http://www.w3.org/TR/2001/REC-SVG-20010904/DTD/svg10.dtd">
<svg version="1.0" xmlns="http://www.w3.org/2000/svg"
 width="2000.000000pt" height="2000.000000pt" viewBox="0 0 2000.000000 2000.000000"
 preserveAspectRatio="xMidYMid meet">

<g transform="translate(0.000000,2000.000000) scale(0.100000,-0.100000)"
fill="#000000" stroke="none">
<path d="M11029 17246 c-2 -2 -38 -6 -79 -9 -99 -8 -184 -36 -297 -101 -62
-35 -203 -156 -260 -222 -79 -93 -163 -200 -163 -209 0 -3 -17 -29 -38 -58
-20 -29 -66 -108 -101 -177 -35 -69 -81 -152 -103 -186 -21 -34 -38 -64 -38
-67 0 -4 -19 -37 -42 -74 -22 -38 -51 -86 -63 -108 -12 -22 -63 -112 -115
-200 -172 -297 -243 -420 -276 -480 -19 -33 -38 -67 -43 -75 -6 -8 -41 -69
-79 -135 -38 -66 -109 -187 -157 -270 -48 -82 -103 -178 -124 -213 -20 -35
-40 -71 -46 -80 -21 -37 -104 -179 -122 -212 -17 -29 -147 -255 -224 -387 -11
-18 -29 -50 -40 -70 -12 -21 -52 -90 -88 -153 -67 -114 -100 -172 -138 -240
-11 -19 -71 -123 -133 -230 -62 -107 -147 -253 -188 -325 -41 -71 -78 -134
-82 -140 -4 -5 -18 -30 -32 -55 -41 -74 -370 -644 -378 -655 -8 -10 -167 -285
-240 -415 -20 -36 -69 -121 -109 -190 -40 -69 -129 -222 -198 -340 -68 -118
-128 -222 -133 -230 -5 -8 -37 -62 -70 -120 -33 -58 -65 -112 -70 -120 -6 -8
-13 -21 -17 -29 -8 -18 -209 -365 -234 -406 -10 -16 -22 -37 -26 -45 -8 -18
-89 -158 -103 -180 -6 -8 -13 -22 -17 -30 -4 -8 -31 -55 -60 -103 -29 -48 -53
-89 -53 -92 0 -2 -26 -48 -58 -102 -32 -54 -61 -105 -65 -113 -4 -8 -16 -28
-27 -45 -11 -16 -24 -39 -30 -50 -5 -11 -23 -42 -40 -70 -16 -27 -33 -57 -37
-65 -3 -8 -33 -59 -65 -113 -32 -55 -58 -101 -58 -103 0 -2 -25 -44 -55 -94
-30 -50 -55 -92 -55 -94 0 -2 -34 -61 -75 -131 -41 -69 -75 -128 -75 -131 0
-2 -11 -22 -24 -43 -13 -21 -76 -127 -139 -237 -63 -109 -190 -329 -282 -489
-92 -159 -209 -362 -260 -450 -51 -88 -113 -195 -139 -238 -25 -43 -46 -81
-46 -83 0 -2 -11 -21 -24 -42 -25 -39 -195 -333 -241 -417 -16 -28 -38 -66
-50 -85 -21 -34 -160 -275 -205 -355 -12 -22 -54 -94 -92 -160 -88 -149 -154
-263 -250 -430 -41 -71 -110 -191 -153 -265 -43 -74 -86 -148 -94 -163 -9 -16
-21 -36 -26 -45 -6 -9 -46 -79 -90 -155 -44 -76 -93 -159 -108 -185 -15 -26
-32 -56 -37 -67 -6 -11 -23 -41 -38 -66 -15 -25 -56 -96 -92 -158 -36 -62 -78
-133 -93 -159 -15 -26 -30 -54 -34 -62 -3 -8 -12 -22 -18 -30 -7 -8 -25 -37
-39 -65 -15 -27 -31 -57 -36 -65 -38 -61 -90 -151 -90 -154 0 -2 -34 -61 -75
-131 -41 -69 -75 -128 -75 -130 0 -3 -20 -37 -43 -77 -24 -40 -81 -138 -127
-218 -124 -215 -239 -413 -250 -430 -6 -8 -13 -21 -17 -29 -3 -7 -39 -70 -79
-139 -40 -70 -71 -128 -69 -130 2 -2 21 16 42 39 48 55 111 123 189 208 58 62
147 161 204 225 14 16 39 43 55 60 17 18 64 70 105 115 41 46 91 100 110 120
19 21 67 73 105 116 39 44 86 96 105 116 19 20 67 72 105 115 78 88 123 138
175 193 19 21 69 75 110 121 41 46 94 104 117 129 141 156 172 189 203 222 19
20 64 70 100 110 36 41 86 96 111 124 93 101 110 119 162 178 28 32 77 85 107
117 87 93 110 119 205 225 49 55 105 117 124 139 74 79 218 237 271 297 40 44
172 189 210 230 63 68 184 201 225 246 22 25 51 57 65 72 14 15 61 67 105 116
44 49 94 103 110 120 17 18 64 70 105 116 115 128 153 170 176 193 11 12 63
68 114 126 51 58 103 114 114 126 12 11 53 56 91 99 110 123 156 173 216 236
31 33 68 74 82 92 14 17 51 60 84 94 32 33 90 96 128 139 39 43 86 94 105 115
19 20 52 56 74 80 74 84 191 213 212 233 11 12 60 66 108 121 49 55 96 107
106 115 10 8 59 62 110 120 52 58 103 115 114 126 12 12 53 56 91 99 39 43 90
101 115 128 25 28 56 62 70 76 13 14 65 71 113 126 49 55 99 110 111 122 11
11 55 58 96 104 41 46 91 100 110 120 19 20 44 47 55 60 57 66 219 246 233
259 10 9 55 58 102 110 77 87 120 135 181 200 13 13 64 70 113 125 49 55 100
112 115 126 14 14 58 61 96 104 39 44 86 96 105 116 19 20 64 69 100 110 73
83 132 148 270 299 52 57 100 108 105 114 39 43 208 230 245 271 25 27 74 81
110 120 182 194 399 432 428 469 18 22 55 64 81 91 49 52 187 204 326 359 44
50 90 101 102 114 13 14 20 28 17 33 -3 5 -3 9 -1 9 4 0 63 -98 119 -198 65
-116 231 -406 294 -513 41 -69 74 -130 74 -136 0 -6 4 -13 9 -15 7 -2 228
-379 331 -563 12 -22 53 -92 90 -155 37 -63 94 -162 127 -220 33 -58 186 -323
340 -590 154 -267 289 -501 300 -520 11 -19 75 -129 141 -244 67 -114 122
-210 122 -212 0 -3 11 -21 23 -42 13 -20 154 -262 312 -537 159 -275 348 -603
422 -730 l133 -230 -3210 -3 -3211 -2 -22 -23 c-19 -20 -84 -91 -270 -297 -27
-30 -77 -84 -111 -120 -34 -36 -90 -97 -125 -137 -35 -39 -94 -103 -130 -141
-36 -38 -88 -96 -116 -128 -27 -32 -59 -68 -71 -79 -20 -19 -213 -232 -258
-284 -12 -13 -40 -42 -63 -64 -24 -22 -43 -43 -43 -47 0 -4 -19 -27 -42 -51
-64 -66 -173 -184 -258 -279 -41 -45 -92 -101 -113 -124 -103 -110 -127 -137
-192 -210 -38 -43 -88 -97 -110 -120 -87 -91 -165 -182 -165 -193 0 -10 991
-13 4921 -13 4686 0 4921 1 4908 18 -12 15 -11 15 8 -1 20 -17 54 -18 705 -14
375 3 708 7 738 10 128 10 243 23 300 32 19 3 51 7 70 9 49 6 208 44 250 60
152 58 276 119 300 145 3 4 22 19 43 34 203 152 280 443 191 722 -14 44 -29
85 -34 90 -6 9 -200 344 -558 965 -52 91 -152 264 -222 385 -342 593 -807
1398 -894 1548 -53 92 -140 242 -193 335 -53 92 -144 250 -203 352 -109 188
-352 609 -555 960 -62 107 -125 218 -140 245 -15 28 -31 55 -35 60 -4 6 -59
100 -122 210 -112 195 -577 1000 -843 1460 -73 127 -310 536 -525 910 -216
374 -452 784 -525 910 -73 127 -250 433 -393 680 -403 700 -482 837 -595 1032
-96 166 -191 310 -257 387 -110 131 -155 174 -265 258 -79 60 -201 125 -252
134 -15 3 -30 7 -34 9 -4 3 -26 7 -49 10 -24 3 -46 8 -50 10 -4 2 -9 3 -11 1z
m-1591 -2001 c-3 -3 -9 2 -12 12 -6 14 -5 15 5 6 7 -7 10 -15 7 -18z m32 -45
c6 -11 8 -20 6 -20 -3 0 -10 9 -16 20 -6 11 -8 20 -6 20 3 0 10 -9 16 -20z
m40 -70 c6 -11 8 -20 6 -20 -3 0 -10 9 -16 20 -6 11 -8 20 -6 20 3 0 10 -9 16
-20z m160 -280 c6 -11 8 -20 6 -20 -3 0 -10 9 -16 20 -6 11 -8 20 -6 20 3 0
10 -9 16 -20z m30 -50 c6 -11 8 -20 6 -20 -3 0 -10 9 -16 20 -6 11 -8 20 -6
20 3 0 10 -9 16 -20z m30 -50 c6 -11 8 -20 6 -20 -3 0 -10 9 -16 20 -6 11 -8
20 -6 20 3 0 10 -9 16 -20z m30 -55 c14 -19 14 -19 -2 -6 -10 7 -18 18 -18 24
0 6 1 8 3 6 1 -2 9 -13 17 -24z m71 -122 c13 -16 12 -17 -3 -4 -17 13 -22 21
-14 21 2 0 10 -8 17 -17z m59 -103 c6 -11 8 -20 6 -20 -3 0 -10 9 -16 20 -6
11 -8 20 -6 20 3 0 10 -9 16 -20z m40 -70 c6 -11 8 -20 6 -20 -3 0 -10 9 -16
20 -6 11 -8 20 -6 20 3 0 10 -9 16 -20z m30 -50 c6 -11 8 -20 6 -20 -3 0 -10
9 -16 20 -6 11 -8 20 -6 20 3 0 10 -9 16 -20z m30 -50 c6 -11 8 -20 6 -20 -3
0 -10 9 -16 20 -6 11 -8 20 -6 20 3 0 10 -9 16 -20z m78 -145 c-3 -3 -9 2 -12
12 -6 14 -5 15 5 6 7 -7 10 -15 7 -18z m126 -211 c3 -8 2 -12 -4 -9 -6 3 -10
10 -10 16 0 14 7 11 14 -7z m30 -50 c3 -8 2 -12 -4 -9 -6 3 -10 10 -10 16 0
14 7 11 14 -7z m30 -50 c3 -8 2 -12 -4 -9 -6 3 -10 10 -10 16 0 14 7 11 14 -7z
m44 -89 c-3 -3 -9 2 -12 12 -6 14 -5 15 5 6 7 -7 10 -15 7 -18z m30 -50 c-3
-3 -9 2 -12 12 -6 14 -5 15 5 6 7 -7 10 -15 7 -18z m232 -395 c6 -11 8 -20 6
-20 -3 0 -10 9 -16 20 -6 11 -8 20 -6 20 3 0 10 -9 16 -20z m30 -50 c6 -11 8
-20 6 -20 -3 0 -10 9 -16 20 -6 11 -8 20 -6 20 3 0 10 -9 16 -20z m54 -96 c3
-8 2 -12 -4 -9 -6 3 -10 10 -10 16 0 14 7 11 14 -7z m106 -184 c6 -11 8 -20 6
-20 -3 0 -10 9 -16 20 -6 11 -8 20 -6 20 3 0 10 -9 16 -20z m70 -120 c6 -11 8
-20 6 -20 -3 0 -10 9 -16 20 -6 11 -8 20 -6 20 3 0 10 -9 16 -20z m30 -50 c6
-11 8 -20 6 -20 -3 0 -10 9 -16 20 -6 11 -8 20 -6 20 3 0 10 -9 16 -20z m30
-55 c14 -19 14 -19 -2 -6 -10 7 -18 18 -18 24 0 6 1 8 3 6 1 -2 9 -13 17 -24z
m79 -139 c-3 -3 -11 5 -18 17 -13 21 -12 21 5 5 10 -10 16 -20 13 -22z m51
-86 c6 -11 8 -20 6 -20 -3 0 -10 9 -16 20 -6 11 -8 20 -6 20 3 0 10 -9 16 -20z
m2870 -4970 c6 -11 8 -20 6 -20 -3 0 -10 9 -16 20 -6 11 -8 20 -6 20 3 0 10
-9 16 -20z m30 -50 c6 -11 8 -20 6 -20 -3 0 -10 9 -16 20 -6 11 -8 20 -6 20 3
0 10 -9 16 -20z m40 -70 c6 -11 8 -20 6 -20 -3 0 -10 9 -16 20 -6 11 -8 20 -6
20 3 0 10 -9 16 -20z m160 -280 c6 -11 8 -20 6 -20 -3 0 -10 9 -16 20 -6 11
-8 20 -6 20 3 0 10 -9 16 -20z m30 -50 c6 -11 8 -20 6 -20 -3 0 -10 9 -16 20
-6 11 -8 20 -6 20 3 0 10 -9 16 -20z m30 -50 c6 -11 8 -20 6 -20 -3 0 -10 9
-16 20 -6 11 -8 20 -6 20 3 0 10 -9 16 -20z m48 -95 c-3 -3 -9 2 -12 12 -6 14
-5 15 5 6 7 -7 10 -15 7 -18z m30 -50 c-3 -3 -9 2 -12 12 -6 14 -5 15 5 6 7
-7 10 -15 7 -18z m126 -211 c3 -8 2 -12 -4 -9 -6 3 -10 10 -10 16 0 14 7 11
14 -7z m30 -50 c3 -8 2 -12 -4 -9 -6 3 -10 10 -10 16 0 14 7 11 14 -7z m26
-45 c0 -6 -4 -7 -10 -4 -5 3 -10 11 -10 16 0 6 5 7 10 4 6 -3 10 -11 10 -16z
m18 -44 c-3 -3 -9 2 -12 12 -6 14 -5 15 5 6 7 -7 10 -15 7 -18z m30 -50 c-3
-3 -9 2 -12 12 -6 14 -5 15 5 6 7 -7 10 -15 7 -18z m30 -50 c-3 -3 -9 2 -12
12 -6 14 -5 15 5 6 7 -7 10 -15 7 -18z m42 -65 c6 -11 8 -20 6 -20 -3 0 -10 9
-16 20 -6 11 -8 20 -6 20 3 0 10 -9 16 -20z m84 -146 c3 -8 2 -12 -4 -9 -6 3
-10 10 -10 16 0 14 7 11 14 -7z m76 -134 c6 -11 8 -20 6 -20 -3 0 -10 9 -16
20 -6 11 -8 20 -6 20 3 0 10 -9 16 -20z m30 -50 c6 -11 8 -20 6 -20 -3 0 -10
9 -16 20 -6 11 -8 20 -6 20 3 0 10 -9 16 -20z m30 -50 c6 -11 8 -20 6 -20 -3
0 -10 9 -16 20 -6 11 -8 20 -6 20 3 0 10 -9 16 -20z m101 -177 c13 -16 12 -17
-3 -4 -10 7 -18 15 -18 17 0 8 8 3 21 -13z m59 -103 c6 -11 8 -20 6 -20 -3 0
-10 9 -16 20 -6 11 -8 20 -6 20 3 0 10 -9 16 -20z m70 -120 c6 -11 8 -20 6
-20 -3 0 -10 9 -16 20 -6 11 -8 20 -6 20 3 0 10 -9 16 -20z m30 -50 c6 -11 8
-20 6 -20 -3 0 -10 9 -16 20 -6 11 -8 20 -6 20 3 0 10 -9 16 -20z m30 -55 c14
-19 14 -19 -2 -6 -10 7 -18 18 -18 24 0 6 1 8 3 6 1 -2 9 -13 17 -24z m48 -90
c-3 -3 -9 2 -12 12 -6 14 -5 15 5 6 7 -7 10 -15 7 -18z"/>
</g>
</svg>
